HIERARCHY
ROOT leWrist
{
	OFFSET 0.00 0.00 0.00
	CHANNELS 6 Xposition Yposition Zposition Xrotation Yrotation Zrotation
	JOINT leHand
	{
		OFFSET 0.11942 0.36471 -0.08791
		CHANNELS 3 Xrotation Yrotation Zrotation
		JOINT LeIndexMP
		{
			OFFSET 1.09197 2.42158 -0.70498
			CHANNELS 2 Zrotation Yrotation
			JOINT LeIndexPIP
			{
				OFFSET 0.54914 1.69807 0.00037
				CHANNELS 1 Zrotation
				JOINT LeIndexDIP
				{
					OFFSET 0.34223 0.98477 -0.13890
					CHANNELS 1 Zrotation
					End Site
					{
						OFFSET 0.30414 0.90123 -0.07454
					}
				}
			}
		}
		JOINT LeMiddleMP
		{
			OFFSET 0.20570 2.50174 -0.52444
			CHANNELS 2 Zrotation Yrotation
			JOINT LeMiddlePIP
			{
				OFFSET -0.25811 1.79891 -0.09553
				CHANNELS 1 Zrotation
				JOINT LeMiddleDIP
				{
					OFFSET -0.15680 1.09225 -0.05298
					CHANNELS 1 Zrotation
					End Site
					{
						OFFSET -0.15297 1.06215 -0.02141
					}
				}
			}
		}
		JOINT LeRingMP
		{
			OFFSET -0.68298 2.32110 -0.37433
			CHANNELS 2 Zrotation Yrotation
			JOINT LeRingPIP
			{
				OFFSET -0.56320 1.55045 -0.08792
				CHANNELS 1 Zrotation
				JOINT LeRingDIP
				{
					OFFSET -0.34522 0.95085 -0.05080
					CHANNELS 1 Zrotation
					End Site
					{
						OFFSET -0.35953 0.99671 -0.01102
					}
				}
			}
		}
		JOINT LePinkyMP
		{
			OFFSET -1.60546 2.01050 -0.41468
			CHANNELS 2 Zrotation Yrotation
			JOINT LePinkyPIP
			{
				OFFSET -0.81697 0.78962 -0.37932
				CHANNELS 1 Zrotation
				JOINT LePinkyDIP
				{
					OFFSET -0.51445 0.51600 -0.16745
					CHANNELS 1 Zrotation
					End Site
					{
						OFFSET -0.66687 0.68407 -0.15932
					}
				}
			}
		}
		JOINT LeThumbCMC
		{
			OFFSET 1.32642 0.01652 -0.91353
			CHANNELS 3 Xrotation Yrotation Zrotation
			JOINT LeThumbMP
			{
				OFFSET 0.56037 -0.04452 -1.10949
				CHANNELS 1 Zrotation
				JOINT LeThumbIP
				{
					OFFSET 0.56894 -0.31394 -0.93677
					CHANNELS 1 Zrotation
					End Site
					{
						OFFSET 0.15316 0.30870 -1.10710
					}
				}
			}
		}
	}
}
MOTION
Frames: 24
Frame Time: 0.008333
 9.9932 50.2877 -1.7292 16.6734 52.1786 63.4497 25.4069 -14.1587 -12.2277 26.2479 1.0739 1.0661 -0.1139 -3.0135 -0.4644 -0.0660 0.0108 -20.3493 -9.4606 -1.3030 0.1921 -47.8536 -9.9081 0.3225 0.0203 66.2507 -28.4686 73.6061 4.3609 -25.5673
 10.1494 50.1346 -1.7155 18.8388 52.7629 62.3744 25.4295 -14.6838 -12.1444 26.6717 1.1913 0.8631 -0.0825 -2.5858 -0.5042 -0.1043 0.0281 -19.9651 -9.7929 -1.3005 0.1817 -47.3505 -10.4880 0.3718 0.1312 65.9886 -28.2825 72.8488 4.3737 -25.6667
 10.3032 49.9817 -1.6959 20.8994 53.1324 61.4898 25.4488 -15.2432 -12.3858 27.2705 1.4182 0.8111 -0.1236 -2.0288 -0.5130 -0.1155 0.0227 -19.6448 -10.0848 -1.2847 0.1719 -46.8902 -11.2591 0.3538 -0.0190 65.9904 -28.2052 72.2111 4.4063 -25.4982
 10.4565 49.8356 -1.6881 22.7851 53.8816 60.7866 25.0622 -15.8541 -12.3958 27.3229 1.4542 0.7175 -0.1572 -1.9755 -0.5710 -0.1217 0.0245 -19.7503 -10.3430 -1.2574 0.1648 -46.9623 -11.8875 0.4373 -0.0050 66.1041 -28.2451 72.2227 4.4065 -25.3143
 10.6127 49.6910 -1.6814 24.5426 54.6310 60.2440 24.6697 -16.1082 -12.5535 27.3344 1.3256 0.5736 -0.1675 -2.1121 -0.6220 -0.1189 0.0190 -19.8301 -10.5187 -1.2230 0.1612 -46.8568 -12.4802 0.4302 0.0413 66.2644 -28.3796 72.2657 4.4166 -25.6032
 10.7600 49.5481 -1.6790 25.5963 55.2965 60.0529 24.7494 -16.4108 -12.5121 27.3048 1.7652 0.7187 -0.3087 -2.1490 -0.6935 -0.1178 0.0192 -19.7773 -10.5455 -1.1883 0.1569 -46.7907 -12.4889 0.4785 0.0505 66.3027 -28.6428 72.1217 4.4427 -25.5197
 10.9056 49.4095 -1.6858 26.9896 56.2348 59.7375 24.2754 -16.4735 -12.6992 27.1181 1.7543 0.6404 -0.2809 -2.2510 -0.7392 -0.1061 0.0097 -19.7894 -10.5570 -1.1528 0.1572 -46.5067 -12.6915 0.4780 0.0484 66.3125 -29.0259 72.2749 4.4532 -25.5523
 11.0508 49.2718 -1.6864 27.9723 57.1325 59.5991 23.7994 -16.7161 -12.7917 27.2475 1.8290 0.6413 -0.2674 -2.2803 -0.7324 -0.1247 0.0201 -19.6864 -10.5285 -1.1166 0.1551 -46.7425 -12.1003 0.5470 0.0534 66.4673 -28.7457 71.9849 4.4386 -25.5311
 11.1971 49.1399 -1.6847 29.0057 57.7944 59.3637 23.4375 -16.7320 -12.7846 27.2111 1.9412 0.6685 -0.3974 -2.3916 -0.7970 -0.1208 0.0171 -19.7526 -10.5314 -1.0750 0.1503 -46.5616 -12.6652 0.5047 0.0920 66.5920 -28.8499 72.0357 4.4385 -25.3789
 11.3345 49.0091 -1.6803 29.8905 58.1416 59.4135 23.2764 -17.0438 -13.0640 27.4078 2.2523 0.5703 -0.2986 -2.2323 -0.8843 -0.1111 0.0173 -19.6507 -10.6936 -1.0699 0.1441 -46.2508 -13.2867 0.5355 0.0743 66.5544 -28.9099 71.9450 4.4519 -25.3530
 11.4712 48.8848 -1.6732 31.1911 58.3784 58.9978 22.8907 -17.1870 -13.1153 27.3845 2.5601 0.6247 -0.3470 -2.2404 -0.9572 -0.1177 0.0208 -19.7039 -11.0980 -1.0662 0.1361 -45.9800 -14.1307 0.5508 0.0847 66.5573 -28.9923 71.6481 4.4640 -25.3883
 11.6009 48.7705 -1.6615 32.4557 58.6076 58.4650 22.4816 -17.4196 -12.9865 27.5477 2.6570 0.5214 -0.3178 -2.1035 -0.9758 -0.1397 0.0283 -19.7114 -11.6729 -1.1005 0.1274 -45.2692 -15.7379 0.5658 0.1511 66.5611 -29.1224 71.8736 4.4726 -25.7832
 11.7172 48.6583 -1.6470 33.7827 58.7888 58.0857 21.9285 -18.0949 -13.1415 27.9395 2.6798 0.3895 -0.2868 -1.7620 -0.9788 -0.1308 0.0185 -19.5076 -12.1522 -1.1116 0.1095 -44.5719 -17.6061 0.5461 0.1608 66.3985 -28.7545 71.2630 4.4750 -25.9420
 11.8295 48.5514 -1.6341 35.2717 58.9461 57.4445 21.3002 -18.5708 -13.1570 28.2345 3.0134 0.4224 -0.2972 -1.5245 -0.9664 -0.1369 0.0196 -19.1279 -12.2558 -1.0467 0.1054 -43.8241 -19.8394 0.5664 0.2219 65.9622 -28.0320 71.1920 4.4342 -25.8561
 11.9251 48.4509 -1.6195 36.3417 59.0117 57.2447 21.0399 -19.0303 -13.2309 28.3988 3.2296 0.4749 -0.3625 -1.3338 -0.9572 -0.1444 0.0187 -18.8031 -12.3117 -1.0196 0.0959 -43.2019 -21.4573 0.6100 0.1835 65.8263 -27.9296 71.3072 4.4299 -25.8712
 12.0125 48.3558 -1.6023 37.3004 59.0913 57.1431 20.8673 -19.3766 -13.3784 28.5976 3.2068 0.3896 -0.3359 -1.1378 -0.9159 -0.1580 0.0175 -18.5504 -12.2219 -0.9736 0.0910 -42.9149 -22.0628 0.6986 0.2354 65.7889 -27.7261 71.1656 4.4321 -25.8240
 12.0900 48.2629 -1.5867 38.0982 59.3917 57.0676 20.7619 -19.4245 -13.3545 28.6377 3.0669 0.3567 -0.4506 -1.2442 -0.9423 -0.1763 0.0306 -18.6028 -12.1719 -0.8726 0.1049 -42.6960 -22.7130 0.6405 0.2735 65.7631 -28.0109 71.3980 4.4409 -25.8885
 12.1536 48.1721 -1.5718 38.9464 60.6207 56.6874 20.1678 -19.7469 -13.1352 28.7929 3.5786 0.3804 -0.3569 -1.0707 -0.9783 -0.1837 0.0341 -18.4271 -12.3747 -0.9335 0.0833 -42.6446 -22.8739 0.6541 0.3279 65.5618 -27.6697 70.9633 4.4233 -25.2821
 12.2135 48.0848 -1.5516 39.3619 60.9868 56.9080 20.2139 -19.5297 -13.3858 28.8564 3.8518 0.4711 -0.4133 -0.9411 -0.9800 -0.1886 0.0348 -18.3542 -12.2685 -0.8762 0.0910 -42.5241 -22.6542 0.6710 0.3481 65.7136 -27.9044 70.9935 4.4448 -25.3653
 12.2618 48.0002 -1.5309 39.7021 61.7663 57.0998 20.0122 -19.5937 -13.4584 29.0020 2.9479 -0.1414 -0.0349 -0.9126 -1.0177 -0.1839 0.0318 -18.4443 -12.2803 -0.8244 0.0950 -42.4063 -23.0084 0.6433 0.3601 65.7196 -28.1270 70.7635 4.4633 -25.5647
 12.3034 47.9217 -1.5118 39.9504 62.1249 57.4186 20.1179 -19.5429 -13.6603 28.9795 4.1577 0.3657 -0.3672 -0.8835 -1.0639 -0.1848 0.0336 -18.3944 -12.4172 -0.8134 0.0945 -42.2962 -23.1129 0.6598 0.3827 65.6360 -28.2949 70.6535 4.4828 -25.5862
 12.3346 47.8449 -1.4894 40.0026 62.5529 57.9443 20.0940 -19.7016 -13.8772 29.0177 4.2041 0.2911 -0.4385 -0.8557 -1.1051 -0.1869 0.0334 -18.4856 -12.5906 -0.7803 0.0949 -42.2354 -23.2876 0.6618 0.4056 65.5291 -28.4939 70.6035 4.4931 -25.9815
 12.3631 47.7759 -1.4666 40.3662 62.9030 58.0246 19.9564 -19.7341 -13.8785 29.0381 4.5139 0.3503 -0.4184 -0.8560 -1.1662 -0.1668 0.0252 -18.5875 -12.8733 -0.7764 0.0906 -41.9454 -23.9208 0.6615 0.4329 65.3864 -28.4684 70.4768 4.4894 -25.6683
 12.3809 47.7101 -1.4421 40.7444 63.1543 58.1397 19.7535 -19.9237 -14.0225 29.3056 4.0662 -0.0444 -0.1184 -0.7188 -1.1694 -0.1972 0.0392 -18.5103 -13.0456 -0.7798 0.0882 -41.7221 -24.1561 0.6850 0.4555 65.3055 -28.5507 70.4355 4.4999 -25.5798
